%
M48
M72
T01C0.0118
T02C0.0320
T03C0.0354
T04C0.0400
T05C0.0512
T06C0.0787
%
T01
X1831Y3124
X2618Y2668
X2866Y3479
X3126Y4384
X2484Y4384
X2508Y5270
X3087Y5238
X3752Y5857
X3205Y6408
X3913Y6864
X3197Y7518
X3957Y7853
X3882Y8979
X3559Y9561
X3606Y10742
X3508Y11412
X3307Y12187
X3776Y12632
X4433Y12951
X4354Y12171
X4933Y10723
X4969Y9715
X4874Y8916
X4925Y7801
X4910Y6821
X4874Y5817
X5366Y4876
X5803Y4183
X5847Y3471
X5768Y2671
X4496Y2727
X4642Y3502
X4311Y3864
X4595Y4349
X4319Y4876
X3516Y2699
X2382Y6290
X2394Y7321
X2433Y8345
X2394Y9609
X2386Y10093
X1595Y9561
X1563Y10124
X2634Y11290
X2602Y12427
X2662Y13546
X2654Y14278
X3280Y13514
X5587Y13089
X6036Y12266
X6575Y12935
X7512Y12057
X7760Y12833
X8410Y11900
X8307Y11337
X8378Y10731
X8358Y10171
X8681Y9892
X9264Y10742
X9228Y11345
X9181Y11912
X8791Y12034
X8705Y12860
X9311Y12782
X10067Y11337
X10063Y10699
X10437Y10049
X11095Y9719
X11539Y10234
X11622Y10829
X10831Y11010
X10740Y11601
X10327Y11939
X12453Y11483
X12524Y10849
X12996Y10022
X13429Y10845
X13819Y11475
X14516Y9939
X15307Y9920
X15276Y10837
X16201Y11463
X16532Y10754
X16532Y10360
X16327Y10002
X16780Y9786
X16862Y8652
X16445Y7790
X16547Y7120
X16563Y6404
X17402Y6412
X17543Y7120
X18563Y8049
X18913Y7301
X19319Y7916
X20221Y7353
X20382Y8506
X19358Y9112
X18784Y9872
X17976Y9845
X17626Y10868
X18799Y12290
X18567Y12857
X19362Y12561
X20102Y12951
X19362Y10711
X20335Y10368
X21339Y6423
X21350Y5408
X20272Y5632
X18843Y6065
X18878Y4868
X18803Y3321
X18772Y2573
X19827Y2569
X20197Y3290
X21327Y3093
X17457Y4707
X16575Y4734
X15823Y5156
X15291Y5683
X15847Y6290
X15740Y7112
X15457Y7817
X15067Y6656
X14343Y5872
X14677Y5073
X15213Y4691
X16252Y3325
X16992Y3451
X14630Y2660
X13634Y2691
X12358Y3408
X12382Y4420
X12736Y4975
X13343Y5884
X13654Y5136
X13599Y4349
X14307Y6971
X13610Y7030
X13717Y8120
X12847Y7939
X12843Y9227
X11429Y8853
X11429Y7774
X11496Y6916
X11075Y5845
X11374Y5549
X11567Y4983
X11390Y4408
X10662Y4971
X10343Y4396
X10425Y3396
X9693Y2597
X9606Y3573
X8811Y4203
X8831Y4790
X8327Y5435
X8740Y6294
X9528Y5916
X10291Y5573
X10646Y6030
X10681Y7053
X10709Y8046
X9559Y7916
X9567Y6975
X8701Y8841
X7988Y8101
X7799Y9049
X6898Y8983
X6402Y9014
X5913Y8975
X6028Y9727
X6043Y10738
X6811Y10746
X6803Y10026
X7622Y10715
X6894Y11471
X6764Y8010
X6059Y7971
X6221Y6786
X6843Y5427
X6961Y4829
X7067Y4195
X7248Y3510
X7244Y2553
X8264Y3522
X8555Y2707
X11406Y3416
X7988Y7061
X15839Y15061
X19114Y20061
T02
X14654Y14758
X14654Y13758
X14654Y12758
X14654Y11758
X11654Y11758
X11654Y12758
X11654Y13758
X11654Y14758
X10228Y9506
X10228Y8506
X10228Y7506
X10228Y6506
X7228Y6506
X7228Y7506
X7228Y8506
X7228Y9506
X7536Y19388
X7536Y20388
X4595Y20416
X4595Y19416
T03
X1799Y19144
X1799Y22144
T04
X1882Y17892
X1882Y16892
X1882Y15892
X1882Y14892
X1882Y13892
X1882Y12892
X1882Y11892
X1882Y10892
X1882Y8892
X1882Y7892
X1882Y6892
X1882Y5892
X1882Y4892
X1882Y3892
X4410Y6353
X5410Y6353
X5410Y8321
X4410Y8321
X4410Y10290
X5410Y10290
X4925Y13353
X3925Y13353
X4091Y15679
X5091Y15679
X5091Y17640
X4091Y17640
X7032Y17644
X8032Y17644
X10473Y17179
X11473Y17179
X13622Y17179
X14622Y17179
X16772Y17179
X17772Y17179
X17772Y20014
X16772Y20014
X17036Y21896
X17036Y22896
X17036Y23896
X17036Y24896
X17036Y25896
X17036Y26896
X17036Y27896
X17036Y28896
X17036Y29896
X16036Y29896
X16036Y28896
X16036Y27896
X16036Y26896
X16036Y25896
X16036Y24896
X16036Y23896
X16036Y22896
X16036Y21896
X15036Y21896
X15036Y22896
X15036Y23896
X15036Y24896
X15036Y25896
X15036Y26896
X15036Y27896
X15036Y28896
X15036Y29896
X14036Y29896
X14036Y28896
X14036Y27896
X14036Y26896
X14036Y25896
X14036Y24896
X14036Y23896
X14036Y22896
X14036Y21896
X13036Y21896
X13036Y22896
X13036Y23896
X13036Y24896
X13036Y25896
X13036Y26896
X13036Y27896
X13036Y28896
X13036Y29896
X12036Y29896
X12036Y28896
X12036Y27896
X12036Y26896
X12036Y25896
X12036Y24896
X12036Y23896
X12036Y22896
X12036Y21896
X11036Y21896
X11036Y22896
X11036Y23896
X11036Y24896
X11036Y25896
X11036Y26896
X11036Y27896
X11036Y28896
X11036Y29896
X10036Y29896
X10036Y28896
X10036Y27896
X10036Y26896
X10036Y25896
X10036Y24896
X10036Y23896
X10036Y22896
X10036Y21896
X9036Y21896
X9036Y22896
X9036Y23896
X9036Y24896
X9036Y25896
X9036Y26896
X9036Y27896
X9036Y28896
X9036Y29896
X8036Y29896
X8036Y28896
X8036Y27896
X8036Y26896
X8036Y25896
X8036Y24896
X8036Y23896
X8036Y22896
X8036Y21896
X9724Y14238
X9724Y13254
X9724Y12270
X12272Y9648
X12272Y8648
X12232Y7443
X12232Y6443
X11882Y3892
X11882Y2892
X12882Y2892
X12882Y3892
X10882Y3892
X10882Y2892
X7756Y2947
X6756Y2947
X7114Y13349
X6114Y13349
X13622Y20014
X14622Y20014
X17284Y14274
X17284Y13290
X17284Y12305
X15787Y11880
X15787Y12880
X15787Y13880
X16118Y9227
X15118Y9227
X17425Y9242
X18425Y9242
X20882Y8892
X20882Y9892
X20882Y10892
X20882Y12392
X20882Y13392
X20882Y14392
X20882Y15392
X20882Y16392
X20882Y17392
X20882Y18392
X20882Y19392
X20882Y20392
X20882Y21392
X20882Y7892
X20882Y6892
X20882Y5892
X20882Y4892
X20882Y3892
T05
X18236Y11132
X13886Y9620
X9744Y15612
X8244Y13278
X5532Y11813
X6197Y5136
X19114Y21983
T06
X19561Y24395
X20501Y25823
X20497Y27986
X19553Y28895
M30
